<svg width="65" height="57" fill="none" xmlns="http://www.w3.org/2000/svg"><path d="M33.603 28.8a8.35 8.35 0 0 0-1.397-4.66 8.394 8.394 0 0 0-3.762-3.1 8.428 8.428 0 0 0-9.168 1.789 8.343 8.343 0 0 0-1.838 9.127 8.377 8.377 0 0 0 3.093 3.762 8.422 8.422 0 0 0 4.67 1.414 8.343 8.343 0 0 0 5.952-2.413 8.285 8.285 0 0 0 2.45-5.919zm-12.588 0a4.18 4.18 0 0 1 .698-2.338 4.204 4.204 0 0 1 1.886-1.555 4.221 4.221 0 0 1 4.597.903 4.187 4.187 0 0 1 .907 4.58 4.195 4.195 0 0 1-1.56 1.88 4.22 4.22 0 0 1-2.348.696 4.253 4.253 0 0 1-2.938-1.239 4.223 4.223 0 0 1-1.242-2.927zM33.603 8.41a8.35 8.35 0 0 0-1.397-4.662 8.394 8.394 0 0 0-3.762-3.1 8.429 8.429 0 0 0-9.168 1.79 8.343 8.343 0 0 0-1.838 9.127 8.377 8.377 0 0 0 3.093 3.763 8.423 8.423 0 0 0 4.67 1.413 8.343 8.343 0 0 0 5.952-2.413 8.286 8.286 0 0 0 2.45-5.919zm-12.588 0a4.18 4.18 0 0 1 .698-2.34 4.204 4.204 0 0 1 1.886-1.554 4.221 4.221 0 0 1 4.597.903 4.187 4.187 0 0 1 .907 4.58 4.196 4.196 0 0 1-1.56 1.88 4.22 4.22 0 0 1-2.348.696 4.253 4.253 0 0 1-2.938-1.239 4.223 4.223 0 0 1-1.242-2.927zm12.588 40.258a8.35 8.35 0 0 0-1.397-4.661 8.393 8.393 0 0 0-3.762-3.1 8.428 8.428 0 0 0-9.168 1.79 8.343 8.343 0 0 0-1.838 9.127 8.378 8.378 0 0 0 3.093 3.762A8.422 8.422 0 0 0 25.2 57a8.343 8.343 0 0 0 5.952-2.413 8.286 8.286 0 0 0 2.45-5.918zm-12.588 0a4.181 4.181 0 0 1 .698-2.339 4.204 4.204 0 0 1 1.886-1.555 4.221 4.221 0 0 1 4.597.904 4.187 4.187 0 0 1 .907 4.58 4.195 4.195 0 0 1-1.56 1.88c-.697.459-1.513.7-2.348.696a4.253 4.253 0 0 1-2.938-1.239 4.222 4.222 0 0 1-1.242-2.927z" fill="#FF2345"/><path d="M36.015 56.579h9.79V52.42h-5.61l-.007-12.309h-4.167l-.006 16.467zm4.831-39.443h4.174V4.82h5.227V.669H35.996v4.152h4.85v12.315zM8.566 36.883a8.72 8.72 0 0 0 6.165-2.728l.274-.273-2.917-2.944-.28.28a4.884 4.884 0 0 1-3.242 1.507 4.182 4.182 0 0 1-3.202-1.06A4.153 4.153 0 0 1 4 28.592a4.138 4.138 0 0 1 1.365-3.073 4.172 4.172 0 0 1 3.202-1.06 4.662 4.662 0 0 1 3.235 1.52l.281.293 2.923-2.963-.274-.28a8.705 8.705 0 0 0-6.165-2.746 8.364 8.364 0 0 0-6.043 2.348A8.302 8.302 0 0 0 0 28.583a8.276 8.276 0 0 0 2.523 5.952 8.34 8.34 0 0 0 6.043 2.348zm31.629-8.685v8.83H36.02V20.424h3.804l5.948 8.85V20.55h18.61v4.03h-5.17l-.006 12.296h-4.168V24.581H49.92v12.295h-3.759l-5.967-8.678zM6.6 17.091H2.041V.421H6.3c3.032 0 5.502.496 7.397 3.11a8.788 8.788 0 0 1 1.538 5.155c0 5.5-3.14 8.405-8.635 8.405zm.733-12.932H6.02v9.194h1.276c2.916 0 4.09-1.87 4.09-4.571 0-2.703-1.199-4.623-4.052-4.623zm1.213 47.175H5.961v5.404H1.96V40.106h6.382c4.2 0 6.497 2.257 6.497 5.677 0 2.404-1.136 3.917-2.598 4.603l3.37 6.358h-4.353l-2.712-5.41zm.185-3.446c1.277 0 2.03-.68 2.03-1.838 0-1.443-.747-2.288-2.03-2.288h-2.77v4.126h2.77z" fill="#fff"/></svg>